<svg xmlns="http://www.w3.org/2000/svg" viewBox="6 8 108 108" width="120" height="120"><rect width="120" height="120" fill="#dde3ef"/><path d="M32 60 Q31 24 60 24 Q89 24 88 60 L89 82 Q60 88 31 82 Z" fill="#c99a52"/><path d="M12 120 Q14 92 60 87 Q106 92 108 120 Z" fill="#b39461"/><rect x="51" y="68" width="18" height="22" rx="7" fill="#d0af91"/><path d="M51 87 L60 98 L69 87 Z" fill="#d0af91"/><ellipse cx="39.5" cy="58" rx="4.5" ry="6.5" fill="#d0af91"/><ellipse cx="80.5" cy="58" rx="4.5" ry="6.5" fill="#d0af91"/><ellipse cx="60" cy="56" rx="21" ry="25" fill="#f2cba9"/><path d="M37 58 Q35 28 60 28 Q85 28 83 58 Q82 44 72 40 Q60 46 42 42 Q38 48 37 58 Z" fill="#c99a52"/><path d="M50 32 Q60 28 72 33" stroke="#fbc066" stroke-width="2" fill="none" stroke-linecap="round" opacity=".5"/><path d="M48 50 Q52 47.5 56 50 M64 50 Q68 47.5 72 50" stroke="#b58b4a" stroke-width="2" fill="none" stroke-linecap="round"/><ellipse cx="52" cy="57" rx="2.3" ry="2.7" fill="#241c2b"/><ellipse cx="68" cy="57" rx="2.3" ry="2.7" fill="#241c2b"/><circle cx="47" cy="65" r="4" fill="#e8838a" opacity=".22"/><circle cx="73" cy="65" r="4" fill="#e8838a" opacity=".22"/><path d="M58 61 Q60 63.5 62 61" stroke="#a98e76" stroke-width="1.5" fill="none" stroke-linecap="round"/><path d="M52.5 67 Q60 74 67.5 67 Q60 70.5 52.5 67 Z" fill="#fff" stroke="#8c4a44" stroke-width="1.6" stroke-linejoin="round"/></svg>
